<svg width="83" height="24" viewBox="0 0 83 24" fill="currentColor" xmlns="http://www.w3.org/2000/svg">
<path d="M5.81393 3.19928C6.64377 1.08382 8.5466 0.0177191 10.4583 0C12.37 0.0177191 14.2728 1.08382 15.1027 3.19928L20.5636 17.1191C21.8556 20.4124 19.4419 23.9719 15.9133 24C13.1491 23.9779 10.9146 21.7295 10.9146 18.9599C10.9146 17.3071 11.5018 16.1416 12.3956 15.1887C13.2889 14.2358 14.4904 13.1761 14.4904 11.6518C14.4904 9.42507 12.685 7.6197 10.4583 7.6197C8.2316 7.6197 6.42622 9.42507 6.42622 11.6518C6.42622 13.1761 7.62767 14.2358 8.52101 15.1887C9.41484 16.1416 10.002 17.3071 10.002 18.9599C10.002 21.7295 7.76746 23.9779 5.00328 24C1.47472 23.9719 -0.939009 20.4124 0.353007 17.1191L5.81393 3.19928Z" fill="currentColor"/>
<path d="M41.1566 20.5595H29.1166C28.6766 20.5595 28.27 20.5195 27.8966 20.4395C27.5366 20.3728 27.2233 20.2395 26.9566 20.0395C26.69 19.8528 26.4833 19.5861 26.3366 19.2395C26.19 18.9061 26.1166 18.4795 26.1166 17.9595V15.3195H37.9566V14.4395H26.1166V12.2795H41.1566V17.4995H29.3166C29.3166 17.6461 29.3166 17.7728 29.3166 17.8795C29.33 17.9861 29.3566 18.0795 29.3966 18.1595C29.45 18.2395 29.53 18.2995 29.6366 18.3395C29.7433 18.3795 29.89 18.3995 30.0766 18.3995H41.1566V20.5595ZM30.3366 11.3595C29.2833 11.3595 28.41 11.2461 27.7166 11.0195C27.0233 10.7928 26.47 10.4995 26.0566 10.1395C25.6433 9.76612 25.35 9.34612 25.1766 8.87945C25.0033 8.39945 24.9166 7.90612 24.9166 7.39945C24.9166 6.90612 25.0033 6.41945 25.1766 5.93945C25.35 5.45945 25.6433 5.03945 26.0566 4.67945C26.47 4.30612 27.0233 4.00612 27.7166 3.77945C28.41 3.55279 29.2833 3.43945 30.3366 3.43945C31.3766 3.43945 32.2433 3.55279 32.9366 3.77945C33.63 4.00612 34.1833 4.30612 34.5966 4.67945C35.01 5.03945 35.3033 5.45945 35.4766 5.93945C35.65 6.41945 35.7366 6.90612 35.7366 7.39945C35.7366 7.90612 35.65 8.39945 35.4766 8.87945C35.3033 9.34612 35.01 9.76612 34.5966 10.1395C34.1833 10.4995 33.63 10.7928 32.9366 11.0195C32.2433 11.2461 31.3766 11.3595 30.3366 11.3595ZM37.9566 3.63945H41.1566V6.23945H43.6966V8.57945H41.1566V11.3795H37.9566V3.63945ZM30.3366 5.67945C30.11 5.67945 29.87 5.70612 29.6166 5.75945C29.3633 5.79945 29.1233 5.88612 28.8966 6.01945C28.6833 6.13945 28.5033 6.31279 28.3566 6.53945C28.21 6.75279 28.1366 7.03945 28.1366 7.39945C28.1366 7.74612 28.21 8.03279 28.3566 8.25945C28.5033 8.47279 28.6833 8.64612 28.8966 8.77945C29.1233 8.89945 29.3633 8.98612 29.6166 9.03945C29.87 9.07945 30.11 9.09945 30.3366 9.09945C30.55 9.09945 30.7833 9.07945 31.0366 9.03945C31.3033 8.98612 31.5433 8.89945 31.7566 8.77945C31.9833 8.64612 32.17 8.47279 32.3166 8.25945C32.4633 8.03279 32.5366 7.74612 32.5366 7.39945C32.5366 7.03945 32.4633 6.75279 32.3166 6.53945C32.17 6.31279 31.9833 6.13945 31.7566 6.01945C31.5433 5.88612 31.3033 5.79945 31.0366 5.75945C30.7833 5.70612 30.55 5.67945 30.3366 5.67945Z" fill="currentColor"/>
<path d="M59.2966 3.63945H62.4966V19.8395H59.2966V3.63945ZM52.7766 9.97945V5.97945H45.1166V3.63945H55.9766V12.3195H48.3166V15.5795C48.3166 16.1661 48.51 16.6328 48.8966 16.9795C49.2966 17.3261 49.9433 17.4995 50.8366 17.4995C51.6233 17.4995 52.21 17.3261 52.5966 16.9795C52.9833 16.6328 53.1766 16.1661 53.1766 15.5795V14.6595H56.3766V15.0595C56.3766 16.7261 55.9433 17.9395 55.0766 18.6995C54.21 19.4595 52.7966 19.8395 50.8366 19.8395C48.9433 19.8395 47.5166 19.4595 46.5566 18.6995C45.61 17.9395 45.13 16.7261 45.1166 15.0595V9.97945H52.7766Z" fill="currentColor"/>
<path d="M79.2966 3.63945H82.4966V19.8395H79.2966V3.63945ZM68.3166 3.63945V15.5795C68.3166 16.1661 68.51 16.6328 68.8966 16.9795C69.2966 17.3261 69.9433 17.4995 70.8366 17.4995C71.6233 17.4995 72.21 17.3261 72.5966 16.9795C72.9833 16.6328 73.1766 16.1661 73.1766 15.5795V14.0595H76.3766V15.0595C76.3766 16.7261 75.9433 17.9395 75.0766 18.6995C74.21 19.4595 72.7966 19.8395 70.8366 19.8395C68.9433 19.8395 67.5166 19.4595 66.5566 18.6995C65.61 17.9395 65.13 16.7261 65.1166 15.0595V3.63945H68.3166Z" fill="currentColor"/>
</svg>
