<svg width="57" height="40" viewBox="0 0 57 40" fill="none" xmlns="http://www.w3.org/2000/svg">
<g filter="url(#filter0_bdi_655_1881)">
<path d="M9.03909 6.0955L4.85448 33.2955C4.66809 34.507 5.60545 35.5996 6.83122 35.5996L18.9 35.5996L38.1 35.5996L50.1688 35.5996C51.3946 35.5996 52.3319 34.507 52.1455 33.2955L47.9609 6.0955C47.8108 5.11984 46.9713 4.39962 45.9842 4.39962L11.0158 4.39962C10.0287 4.39962 9.1892 5.11984 9.03909 6.0955Z" fill="url(#paint0_linear_655_1881)" shape-rendering="crispEdges"/>
<path d="M5.34866 33.3715L9.53328 6.17153C9.64586 5.43978 10.2755 4.89962 11.0158 4.89962L45.9842 4.89962C46.7245 4.89962 47.3541 5.43978 47.4667 6.17153L51.6513 33.3715C51.7911 34.2802 51.0881 35.0996 50.1688 35.0996L38.1 35.0996L18.9 35.0996L6.83122 35.0996C5.91189 35.0996 5.20887 34.2802 5.34866 33.3715Z" stroke="url(#paint1_linear_655_1881)" stroke-opacity="0.7" shape-rendering="crispEdges"/>
</g>
<g filter="url(#filter1_d_655_1881)">
<path d="M19.498 14.002C21.1549 14.002 22.498 15.3451 22.498 17.002H34.498C34.498 15.3451 35.8412 14.002 37.498 14.002C39.1549 14.002 40.498 15.3451 40.498 17.002C40.498 18.6588 39.1549 20.002 37.498 20.002C39.1549 20.002 40.498 21.3451 40.498 23.002C40.498 24.6588 39.1549 26.002 37.498 26.002C35.8412 26.002 34.498 24.6588 34.498 23.002H22.498C22.498 24.6588 21.1549 26.002 19.498 26.002C17.8412 26.002 16.498 24.6588 16.498 23.002C16.498 21.3451 17.8412 20.002 19.498 20.002C17.8412 20.002 16.498 18.6588 16.498 17.002C16.498 15.3451 17.8412 14.002 19.498 14.002Z" fill="#00B896"/>
</g>
<defs>
<filter id="filter0_bdi_655_1881" x="0.830811" y="0.400391" width="55.3384" height="39.1992" filterUnits="userSpaceOnUse" color-interpolation-filters="sRGB">
<feFlood flood-opacity="0" result="BackgroundImageFix"/>
<feGaussianBlur in="BackgroundImageFix" stdDeviation="1"/>
<feComposite in2="SourceAlpha" operator="in" result="effect1_backgroundBlur_655_1881"/>
<feColorMatrix in="SourceAlpha" type="matrix" values="0 0 0 0 0 0 0 0 0 0 0 0 0 0 0 0 0 0 127 0" result="hardAlpha"/>
<feOffset/>
<feGaussianBlur stdDeviation="2"/>
<feComposite in2="hardAlpha" operator="out"/>
<feColorMatrix type="matrix" values="0 0 0 0 0.2 0 0 0 0 0.776471 0 0 0 0 0.670588 0 0 0 0.1 0"/>
<feBlend mode="normal" in2="effect1_backgroundBlur_655_1881" result="effect2_dropShadow_655_1881"/>
<feBlend mode="normal" in="SourceGraphic" in2="effect2_dropShadow_655_1881" result="shape"/>
<feColorMatrix in="SourceAlpha" type="matrix" values="0 0 0 0 0 0 0 0 0 0 0 0 0 0 0 0 0 0 127 0" result="hardAlpha"/>
<feOffset/>
<feGaussianBlur stdDeviation="1.5"/>
<feComposite in2="hardAlpha" operator="arithmetic" k2="-1" k3="1"/>
<feColorMatrix type="matrix" values="0 0 0 0 0.2 0 0 0 0 0.776471 0 0 0 0 0.670588 0 0 0 0.38 0"/>
<feBlend mode="normal" in2="shape" result="effect3_innerShadow_655_1881"/>
</filter>
<filter id="filter1_d_655_1881" x="14.498" y="12.002" width="28" height="16" filterUnits="userSpaceOnUse" color-interpolation-filters="sRGB">
<feFlood flood-opacity="0" result="BackgroundImageFix"/>
<feColorMatrix in="SourceAlpha" type="matrix" values="0 0 0 0 0 0 0 0 0 0 0 0 0 0 0 0 0 0 127 0" result="hardAlpha"/>
<feOffset/>
<feGaussianBlur stdDeviation="1"/>
<feComposite in2="hardAlpha" operator="out"/>
<feColorMatrix type="matrix" values="0 0 0 0 0.2 0 0 0 0 0.776471 0 0 0 0 0.670588 0 0 0 0.35 0"/>
<feBlend mode="normal" in2="BackgroundImageFix" result="effect1_dropShadow_655_1881"/>
<feBlend mode="normal" in="SourceGraphic" in2="effect1_dropShadow_655_1881" result="shape"/>
</filter>
<linearGradient id="paint0_linear_655_1881" x1="-14.7" y1="45.7396" x2="30.2672" y2="-31.8262" gradientUnits="userSpaceOnUse">
<stop stop-color="#004D3F" stop-opacity="0.26"/>
<stop offset="0.5" stop-color="#33C6AB" stop-opacity="0.12"/>
<stop offset="1" stop-color="#B0E9DE" stop-opacity="0.04"/>
</linearGradient>
<linearGradient id="paint1_linear_655_1881" x1="11.7" y1="34.8196" x2="31.8347" y2="-1.31962" gradientUnits="userSpaceOnUse">
<stop stop-color="white" stop-opacity="0.15"/>
<stop offset="1" stop-color="white" stop-opacity="0.44"/>
</linearGradient>
</defs>
</svg>
