<svg width="24" height="24" viewBox="0 0 24 24" fill="none" xmlns="http://www.w3.org/2000/svg">
<path d="M3.74251 7.69589L2.3579 16.6959C2.17151 17.9074 3.10887 19 4.33464 19L8.00342 19L16.0034 19L19.6722 19C20.898 19 21.8353 17.9074 21.6489 16.6959L20.2643 7.69589C20.1142 6.72022 19.2747 6 18.2876 6L5.71926 6C4.73211 6 3.89261 6.72022 3.74251 7.69589Z" fill="#00B896"/>
<path d="M8.25342 10C8.94377 10 9.50342 10.5596 9.50342 11.25H14.5034C14.5034 10.5596 15.0631 10 15.7534 10C16.4438 10 17.0034 10.5596 17.0034 11.25C17.0034 11.9404 16.4438 12.5 15.7534 12.5C16.4438 12.5 17.0034 13.0596 17.0034 13.75C17.0034 14.4404 16.4438 15 15.7534 15C15.0631 15 14.5034 14.4404 14.5034 13.75H9.50342C9.50342 14.4404 8.94377 15 8.25342 15C7.56306 15 7.00342 14.4404 7.00342 13.75C7.00342 13.0596 7.56306 12.5 8.25342 12.5C7.56306 12.5 7.00342 11.9404 7.00342 11.25C7.00342 10.5596 7.56306 10 8.25342 10Z" fill="white"/>
</svg>
