<svg width="165" height="114" viewBox="0 0 165 114" fill="none" xmlns="http://www.w3.org/2000/svg">
<rect width="165" height="114" rx="12" fill="#F3F3F4"/>
<rect x="0.5" y="0.5" width="164" height="113" rx="11.5" stroke="url(#paint0_linear_655_1880)" stroke-opacity="0.7"/>
<g filter="url(#filter0_bdi_655_1880)">
<path d="M63.0391 21.0955L58.8545 48.2955C58.6681 49.507 59.6055 50.5996 60.8312 50.5996L72.9 50.5996L92.1 50.5996L104.169 50.5996C105.395 50.5996 106.332 49.507 106.146 48.2955L101.961 21.0955C101.811 20.1198 100.971 19.3996 99.9842 19.3996L65.0158 19.3996C64.0287 19.3996 63.1892 20.1198 63.0391 21.0955Z" fill="url(#paint1_linear_655_1880)" shape-rendering="crispEdges"/>
<path d="M59.3487 48.3715L63.5333 21.1715C63.6459 20.4398 64.2755 19.8996 65.0158 19.8996L99.9842 19.8996C100.725 19.8996 101.354 20.4398 101.467 21.1715L105.651 48.3715C105.791 49.2802 105.088 50.0996 104.169 50.0996L92.1 50.0996L72.9 50.0996L60.8312 50.0996C59.9119 50.0996 59.2089 49.2802 59.3487 48.3715Z" stroke="url(#paint2_linear_655_1880)" stroke-opacity="0.7" shape-rendering="crispEdges"/>
</g>
<g filter="url(#filter1_d_655_1880)">
<path d="M73.498 29.002C75.1549 29.002 76.498 30.3451 76.498 32.002H88.498C88.498 30.3451 89.8412 29.002 91.498 29.002C93.1549 29.002 94.498 30.3451 94.498 32.002C94.498 33.6588 93.1549 35.002 91.498 35.002C93.1549 35.002 94.498 36.3451 94.498 38.002C94.498 39.6588 93.1549 41.002 91.498 41.002C89.8412 41.002 88.498 39.6588 88.498 38.002H76.498C76.498 39.6588 75.1549 41.002 73.498 41.002C71.8412 41.002 70.498 39.6588 70.498 38.002C70.498 36.3451 71.8412 35.002 73.498 35.002C71.8412 35.002 70.498 33.6588 70.498 32.002C70.498 30.3451 71.8412 29.002 73.498 29.002Z" fill="#00B896"/>
</g>
<path d="M61.4658 65.4238C61.4521 67.6318 62.5596 69.8604 64.4736 70.7832L63.5439 72C62.2041 71.3232 61.2402 70.0176 60.7139 68.4453C60.1738 70.127 59.1621 71.5215 57.7471 72.2324L56.8174 71.0156C58.8066 70.0723 59.9414 67.707 59.9482 65.4238V63.4551H61.4658V65.4238ZM65.2119 74.8164V62.457H66.7295V67.2969H68.6299V68.5957H66.7295V74.8164H65.2119ZM80.4424 72.123V73.3809H69.1494V72.123H72.1436V70.0859H70.4893V66.0527H77.5986V64.5352H70.4619V63.3047H79.1025V67.2695H72.0068V68.8555H79.3896V70.0859H77.585V72.123H80.4424ZM73.6201 72.123H76.0947V70.0859H73.6201V72.123ZM94.9209 70.3594V74.8301H93.4033V71.5762H86.499V70.3594H94.9209ZM85.1045 69.0332V63.3594H90.915V65.4648H93.4033V62.457H94.9209V69.7578H93.4033V66.6953H90.915V69.0332H85.1045ZM86.6221 67.8301H89.4111V64.5898H86.6221V67.8301ZM106.993 62.457V74.8164H105.462V62.457H106.993ZM96.7529 71.4121C99.9932 69.874 101.483 67.7822 101.757 64.9727H97.3818V63.7695H103.302C103.302 67.4473 101.873 70.5713 97.5459 72.6289L96.7529 71.4121Z" fill="#4A4C51"/>
<path d="M78.1348 82.1152V90.5996H76.834V83.4043H76.7871L74.7598 84.7285V83.498L76.8691 82.1152H78.1348ZM83.5371 81.7168L80.8066 91.877H79.6934L82.4238 81.7168H83.5371ZM84.4512 90.5996V89.6621L87.3926 86.6973C88.3242 85.7305 88.7871 85.1914 88.7871 84.4473C88.7871 83.6094 88.1074 83.0762 87.2168 83.0762C86.2734 83.0762 85.6758 83.6738 85.6699 84.5762H84.4512C84.4395 83.0234 85.623 81.998 87.2402 81.998C88.875 81.998 90.0059 83.0352 90.0176 84.4121C90.0059 85.3613 89.5605 86.1172 87.9668 87.6816L86.2441 89.4277V89.498H90.1582V90.5996H84.4512Z" fill="#AFB1B7"/>
<defs>
<filter id="filter0_bdi_655_1880" x="54.8308" y="15.4004" width="55.3384" height="39.1992" filterUnits="userSpaceOnUse" color-interpolation-filters="sRGB">
<feFlood flood-opacity="0" result="BackgroundImageFix"/>
<feGaussianBlur in="BackgroundImageFix" stdDeviation="1"/>
<feComposite in2="SourceAlpha" operator="in" result="effect1_backgroundBlur_655_1880"/>
<feColorMatrix in="SourceAlpha" type="matrix" values="0 0 0 0 0 0 0 0 0 0 0 0 0 0 0 0 0 0 127 0" result="hardAlpha"/>
<feOffset/>
<feGaussianBlur stdDeviation="2"/>
<feComposite in2="hardAlpha" operator="out"/>
<feColorMatrix type="matrix" values="0 0 0 0 0.2 0 0 0 0 0.776471 0 0 0 0 0.670588 0 0 0 0.1 0"/>
<feBlend mode="normal" in2="effect1_backgroundBlur_655_1880" result="effect2_dropShadow_655_1880"/>
<feBlend mode="normal" in="SourceGraphic" in2="effect2_dropShadow_655_1880" result="shape"/>
<feColorMatrix in="SourceAlpha" type="matrix" values="0 0 0 0 0 0 0 0 0 0 0 0 0 0 0 0 0 0 127 0" result="hardAlpha"/>
<feOffset/>
<feGaussianBlur stdDeviation="1.5"/>
<feComposite in2="hardAlpha" operator="arithmetic" k2="-1" k3="1"/>
<feColorMatrix type="matrix" values="0 0 0 0 0.2 0 0 0 0 0.776471 0 0 0 0 0.670588 0 0 0 0.38 0"/>
<feBlend mode="normal" in2="shape" result="effect3_innerShadow_655_1880"/>
</filter>
<filter id="filter1_d_655_1880" x="68.498" y="27.002" width="28" height="16" filterUnits="userSpaceOnUse" color-interpolation-filters="sRGB">
<feFlood flood-opacity="0" result="BackgroundImageFix"/>
<feColorMatrix in="SourceAlpha" type="matrix" values="0 0 0 0 0 0 0 0 0 0 0 0 0 0 0 0 0 0 127 0" result="hardAlpha"/>
<feOffset/>
<feGaussianBlur stdDeviation="1"/>
<feComposite in2="hardAlpha" operator="out"/>
<feColorMatrix type="matrix" values="0 0 0 0 0.2 0 0 0 0 0.776471 0 0 0 0 0.670588 0 0 0 0.35 0"/>
<feBlend mode="normal" in2="BackgroundImageFix" result="effect1_dropShadow_655_1880"/>
<feBlend mode="normal" in="SourceGraphic" in2="effect1_dropShadow_655_1880" result="shape"/>
</filter>
<linearGradient id="paint0_linear_655_1880" x1="4.125" y1="17.1" x2="102.761" y2="139.468" gradientUnits="userSpaceOnUse">
<stop stop-color="white" stop-opacity="0.15"/>
<stop offset="1" stop-color="white" stop-opacity="0.44"/>
</linearGradient>
<linearGradient id="paint1_linear_655_1880" x1="39.3" y1="60.7396" x2="84.2672" y2="-16.8262" gradientUnits="userSpaceOnUse">
<stop stop-color="#004D3F" stop-opacity="0.26"/>
<stop offset="0.5" stop-color="#33C6AB" stop-opacity="0.12"/>
<stop offset="1" stop-color="#B0E9DE" stop-opacity="0.04"/>
</linearGradient>
<linearGradient id="paint2_linear_655_1880" x1="65.7" y1="49.8196" x2="85.8347" y2="13.6804" gradientUnits="userSpaceOnUse">
<stop stop-color="white" stop-opacity="0.15"/>
<stop offset="1" stop-color="white" stop-opacity="0.44"/>
</linearGradient>
</defs>
</svg>
