<svg width="52" height="52" viewBox="0 0 52 52" fill="none" xmlns="http://www.w3.org/2000/svg">
<g filter="url(#filter0_dd_655_2561)">
<rect x="2" y="2" width="48" height="48" rx="24" fill="white" shape-rendering="crispEdges"/>
<path d="M34.1713 24.3673H33.5V24.3327H26V27.666H30.7096C30.0225 29.6064 28.1763 30.9993 26 30.9993C23.2388 30.9993 21 28.7606 21 25.9993C21 23.2381 23.2388 20.9993 26 20.9993C27.2746 20.9993 28.4342 21.4802 29.3171 22.2656L31.6742 19.9085C30.1858 18.5214 28.195 17.666 26 17.666C21.3979 17.666 17.6667 21.3973 17.6667 25.9993C17.6667 30.6014 21.3979 34.3327 26 34.3327C30.6021 34.3327 34.3333 30.6014 34.3333 25.9993C34.3333 25.4406 34.2758 24.8952 34.1713 24.3673Z" fill="#FFC107"/>
<path d="M18.6275 22.1206L21.3654 24.1285C22.1062 22.2943 23.9004 20.9993 26 20.9993C27.2746 20.9993 28.4342 21.4802 29.3171 22.2656L31.6742 19.9085C30.1858 18.5214 28.195 17.666 26 17.666C22.7992 17.666 20.0233 19.4731 18.6275 22.1206Z" fill="#FF3D00"/>
<path d="M26 34.3336C28.1525 34.3336 30.1083 33.5099 31.5871 32.1703L29.0079 29.9878C28.1431 30.6454 27.0864 31.0011 26 31.0003C23.8325 31.0003 21.9921 29.6182 21.2987 27.6895L18.5812 29.7832C19.9604 32.482 22.7612 34.3336 26 34.3336Z" fill="#4CAF50"/>
<path d="M34.1713 24.3686H33.5V24.334H26V27.6673H30.7096C30.3809 28.5908 29.7889 29.3978 29.0067 29.9886L29.0079 29.9877L31.5871 32.1702C31.4046 32.3361 34.3333 30.1673 34.3333 26.0007C34.3333 25.4419 34.2758 24.8965 34.1713 24.3686Z" fill="#1976D2"/>
</g>
<defs>
<filter id="filter0_dd_655_2561" x="0" y="0" width="52" height="52" filterUnits="userSpaceOnUse" color-interpolation-filters="sRGB">
<feFlood flood-opacity="0" result="BackgroundImageFix"/>
<feColorMatrix in="SourceAlpha" type="matrix" values="0 0 0 0 0 0 0 0 0 0 0 0 0 0 0 0 0 0 127 0" result="hardAlpha"/>
<feOffset/>
<feGaussianBlur stdDeviation="5"/>
<feComposite in2="hardAlpha" operator="out"/>
<feColorMatrix type="matrix" values="0 0 0 0 0.87451 0 0 0 0 0.87451 0 0 0 0 0.87451 0 0 0 0.4 0"/>
<feBlend mode="normal" in2="BackgroundImageFix" result="effect1_dropShadow_655_2561"/>
<feColorMatrix in="SourceAlpha" type="matrix" values="0 0 0 0 0 0 0 0 0 0 0 0 0 0 0 0 0 0 127 0" result="hardAlpha"/>
<feOffset/>
<feGaussianBlur stdDeviation="2"/>
<feComposite in2="hardAlpha" operator="out"/>
<feColorMatrix type="matrix" values="0 0 0 0 0.87451 0 0 0 0 0.87451 0 0 0 0 0.87451 0 0 0 0.4 0"/>
<feBlend mode="normal" in2="effect1_dropShadow_655_2561" result="effect2_dropShadow_655_2561"/>
<feBlend mode="normal" in="SourceGraphic" in2="effect2_dropShadow_655_2561" result="shape"/>
</filter>
</defs>
</svg>