<svg width="12" height="14" viewBox="0 0 12 14" fill="none" xmlns="http://www.w3.org/2000/svg">
<path fill-rule="evenodd" clip-rule="evenodd" d="M0 7.66667C0 5.91777 1.41776 4.5 3.16667 4.5H8.5C10.2489 4.5 11.6667 5.91777 11.6667 7.66667V10.3333C11.6667 12.0822 10.2489 13.5 8.5 13.5H3.16667C1.41776 13.5 0 12.0822 0 10.3333V7.66667ZM6.58333 8.33333C6.58333 7.91912 6.24755 7.58333 5.83333 7.58333C5.41912 7.58333 5.08333 7.91912 5.08333 8.33333V9.66667C5.08333 10.0809 5.41912 10.4167 5.83333 10.4167C6.24755 10.4167 6.58333 10.0809 6.58333 9.66667V8.33333Z" fill="#7B7E86"/>
<path d="M4.14955 1.74656C4.12733 1.76798 4.10547 1.78979 4.084 1.81196C4.10549 1.78977 4.12734 1.76796 4.14955 1.74656C4.62909 1.2843 5.28137 1 6.00004 1C5.7527 0.999999 5.5051 1.03441 5.26451 1.10345C4.84421 1.22405 4.46183 1.44561 4.14955 1.74656Z" fill="#7B7E86"/>
<path d="M4.084 1.81196C4.10547 1.78979 4.12733 1.76798 4.14955 1.74656C4.12734 1.76796 4.10549 1.78977 4.084 1.81196Z" fill="#7B7E86"/>
<path d="M6.00004 1L6.00004 0.25H6.00004V1ZM7.57272 2.57109C7.80949 2.91097 8.27695 2.99456 8.61682 2.75779C8.9567 2.52103 9.04029 2.05357 8.80352 1.71369L7.57272 2.57109ZM6.89297 1.15394L6.64183 1.86065L6.89297 1.15394ZM5.26451 1.10345L5.47138 1.82435L5.26451 1.10345ZM3.32295 1.54375C3.06558 1.8683 3.12004 2.34004 3.4446 2.59741C3.76915 2.85478 4.24089 2.80031 4.49826 2.47576L3.32295 1.54375ZM4.08337 5V3.66667H2.58337V5H4.08337ZM4.08337 3.66667C4.08337 3.14832 4.28815 2.67934 4.62284 2.33365L3.54517 1.29027C2.95053 1.90446 2.58337 2.74346 2.58337 3.66667H4.08337ZM4.62284 2.33365C4.63831 2.31768 4.65405 2.30196 4.67006 2.28653L3.62904 1.20659C3.6006 1.234 3.57264 1.2619 3.54517 1.29027L4.62284 2.33365ZM4.67006 2.28653C5.01546 1.95358 5.4832 1.75 6.00004 1.75V0.25C5.07954 0.25 4.24273 0.615009 3.62904 1.20659L4.67006 2.28653ZM8.80352 1.71369C8.39605 1.12876 7.81582 0.68594 7.14411 0.447239L6.64183 1.86065C7.01865 1.99455 7.34414 2.24297 7.57272 2.57109L8.80352 1.71369ZM7.14411 0.447239C6.77459 0.315923 6.38755 0.250002 6.00004 0.25L6.00004 1.75C6.21744 1.75 6.43454 1.78698 6.64183 1.86065L7.14411 0.447239ZM6.00004 0.25C5.68314 0.249999 5.36589 0.294084 5.05764 0.38254L5.47138 1.82435C5.64431 1.77473 5.82226 1.75 6.00004 1.75L6.00004 0.25ZM5.05764 0.38254C4.51912 0.537072 4.0292 0.82094 3.6291 1.20653L4.67 2.28659C4.89445 2.07027 5.16929 1.91104 5.47138 1.82435L5.05764 0.38254ZM3.6291 1.20653C3.60064 1.23396 3.57264 1.26189 3.54511 1.29033L4.62289 2.3336C4.63834 2.31764 4.65404 2.30197 4.67 2.28659L3.6291 1.20653ZM3.54511 1.29033C3.46718 1.37084 3.39302 1.45539 3.32295 1.54375L4.49826 2.47576C4.53757 2.42618 4.57918 2.37875 4.62289 2.3336L3.54511 1.29033Z" fill="#7B7E86"/>
</svg>
