<svg width="20" height="21" viewBox="0 0 20 21" fill="none" xmlns="http://www.w3.org/2000/svg">
<path fill-rule="evenodd" clip-rule="evenodd" d="M5.46453 14.8446C3.96653 14.0199 2.73001 12.7803 1.91044 11.2817C1.58539 10.6873 1.5854 9.96881 1.91045 9.37444C3.43205 6.59218 6.39067 4.70312 9.79163 4.70312C11.4599 4.70312 13.0218 5.15769 14.3598 5.94928L12.1825 8.12664C11.5886 7.48199 10.7373 7.07812 9.79166 7.07812C7.99673 7.07812 6.54166 8.5332 6.54166 10.3281C6.54166 11.2738 6.94552 12.1251 7.59017 12.719L5.46453 14.8446ZM6.93939 15.4911C7.83541 15.7907 8.79454 15.9531 9.79169 15.9531C13.1926 15.9531 16.1513 14.0641 17.6729 11.2818C17.9979 10.6874 17.9979 9.96894 17.6729 9.37456C17.1422 8.40422 16.4368 7.54252 15.5987 6.8317L12.9342 9.49623C13.0043 9.76175 13.0417 10.0406 13.0417 10.3281C13.0417 12.1231 11.5866 13.5781 9.79166 13.5781C9.50411 13.5781 9.22528 13.5408 8.95976 13.4707L6.93939 15.4911ZM9.79166 10.3281L8.55846 11.5698C8.23928 11.2528 8.04166 10.8135 8.04166 10.3281C8.04166 9.36163 8.82516 8.57812 9.79166 8.57812C10.1902 8.57812 10.5577 8.71137 10.8519 8.93575L9.79166 10.3281Z" fill="#AFB1B7"/>
<path d="M15.8333 3.87109L3.33334 16.3711" stroke="#AFB1B7" stroke-width="1.5" stroke-linecap="round" stroke-linejoin="round"/>
</svg>
