<svg width="20" height="21" viewBox="0 0 20 21" fill="none" xmlns="http://www.w3.org/2000/svg">
<path fill-rule="evenodd" clip-rule="evenodd" d="M9.99998 4.875C6.59902 4.875 3.64039 6.76405 2.1188 9.54631C1.79374 10.1407 1.79373 10.8592 2.11878 11.4536C3.64036 14.2359 6.59902 16.125 10 16.125C13.401 16.125 16.3596 14.2359 17.8812 11.4537C18.2063 10.8593 18.2063 10.1408 17.8812 9.54644C16.3596 6.76411 13.401 4.875 9.99998 4.875ZM10 8.75C9.0335 8.75 8.25 9.5335 8.25 10.5C8.25 11.4665 9.0335 12.25 10 12.25C10.5069 12.25 10.9635 12.0345 11.2831 11.69C10.7804 11.5281 10.4167 11.0565 10.4167 10.5C10.4167 9.94346 10.7804 9.47186 11.2831 9.30995C10.9635 8.96553 10.5069 8.75 10 8.75ZM6.75 10.5C6.75 8.70507 8.20507 7.25 10 7.25C11.7949 7.25 13.25 8.70507 13.25 10.5C13.25 12.2949 11.7949 13.75 10 13.75C8.20507 13.75 6.75 12.2949 6.75 10.5Z" fill="#00B896"/>
</svg>
