<svg width="49" height="32" viewBox="0 0 49 32" fill="none" xmlns="http://www.w3.org/2000/svg">
<g filter="url(#filter0_d_655_1888)">
<path d="M7.79309 10.3494C10.4022 9.65027 13.0841 11.1986 13.7832 13.8078L32.6801 8.74434C31.981 6.13521 33.5294 3.45336 36.1385 2.75424C38.7476 2.05513 41.4295 3.6035 42.1286 6.21262C42.8277 8.82175 41.2794 11.5036 38.6702 12.2027C41.2794 11.5036 43.9612 13.052 44.6603 15.6611C45.3594 18.2702 43.8111 20.9521 41.2019 21.6512C38.5928 22.3503 35.911 20.8019 35.2118 18.1928L16.3149 23.2562C17.014 25.8654 15.4656 28.5472 12.8565 29.2463C10.2474 29.9454 7.56553 28.3971 6.86641 25.7879C6.1673 23.1788 7.71567 20.497 10.3248 19.7979C7.71567 20.497 5.03382 18.9486 4.3347 16.3395C3.63559 13.7303 5.18396 11.0485 7.79309 10.3494Z" fill="#00B896"/>
</g>
<defs>
<filter id="filter0_d_655_1888" x="2.16675" y="0.585938" width="44.6614" height="30.8281" filterUnits="userSpaceOnUse" color-interpolation-filters="sRGB">
<feFlood flood-opacity="0" result="BackgroundImageFix"/>
<feColorMatrix in="SourceAlpha" type="matrix" values="0 0 0 0 0 0 0 0 0 0 0 0 0 0 0 0 0 0 127 0" result="hardAlpha"/>
<feOffset/>
<feGaussianBlur stdDeviation="1"/>
<feComposite in2="hardAlpha" operator="out"/>
<feColorMatrix type="matrix" values="0 0 0 0 0.2 0 0 0 0 0.776471 0 0 0 0 0.670588 0 0 0 0.35 0"/>
<feBlend mode="normal" in2="BackgroundImageFix" result="effect1_dropShadow_655_1888"/>
<feBlend mode="normal" in="SourceGraphic" in2="effect1_dropShadow_655_1888" result="shape"/>
</filter>
</defs>
</svg>
