<svg width="24" height="24" viewBox="0 0 24 24" fill="none" xmlns="http://www.w3.org/2000/svg">
<path d="M3.64662 9.77408C4.95118 9.42452 6.29211 10.1987 6.64167 11.5033L16.0901 8.97156C15.7406 7.66699 16.5148 6.32607 17.8193 5.97651C19.1239 5.62696 20.4648 6.40114 20.8144 7.7057C21.1639 9.01026 20.3898 10.3512 19.0852 10.7007C20.3898 10.3512 21.7307 11.1254 22.0802 12.4299C22.4298 13.7345 21.6556 15.0754 20.351 15.425C19.0465 15.7745 17.7056 15.0004 17.356 13.6958L7.90752 16.2275C8.25708 17.5321 7.48289 18.873 6.17833 19.2226C4.87377 19.5721 3.53284 18.7979 3.18328 17.4934C2.83373 16.1888 3.60791 14.8479 4.91248 14.4983C3.60791 14.8479 2.26699 14.0737 1.91743 12.7691C1.56787 11.4646 2.34206 10.1236 3.64662 9.77408Z" fill="#00B896"/>
</svg>
